Coordinates
version=1
nRows=14
nColumns=24
inDegrees=yes

Units are S.I. units (second, meters, Newtons, ...)
Angles are in degrees.

endheader
time	pelvis_tilt	pelvis_list	pelvis_rotation	pelvis_tx	pelvis_ty	pelvis_tz	hip_flexion_r	hip_adduction_r	hip_rotation_r	knee_angle_r	ankle_angle_r	subtalar_angle_r	mtp_angle_r	hip_flexion_l	hip_adduction_l	hip_rotation_l	knee_angle_l	ankle_angle_l	subtalar_angle_l	mtp_angle_l	lumbar_extension	lumbar_bending	lumbar_rotation
      5.38000000	     -4.45808157	     -6.23067697	      3.02242703	      2.78419719	      0.69946299	     -0.32177948	      7.54605566	     14.93629542	      9.44768306	     -9.10018180	     12.98632715	    -14.87445356	      0.00000000	     26.47244863	     -4.06603542	      4.42210465	    -66.28228015	      3.31982347	    -16.71410005	      0.00000000	    -15.23350510	      3.41973301	      2.98768882
      5.39000000	     -4.60722033	     -5.62859538	      2.60891129	      2.79830202	      0.70093617	     -0.32194214	      5.15267670	     14.22133426	     11.44688817	     -6.99818136	     11.94382527	    -16.60284156	      0.00000000	     28.07871913	     -3.26878273	      4.27091538	    -64.41560484	      3.61190695	    -18.33022505	      0.00000000	    -15.17346062	      2.72630362	      3.63901273
      5.40000000	     -4.79864918	     -5.09207786	      2.13309019	      2.81229732	      0.70194092	     -0.32224637	      2.99441401	     13.50061233	     12.92210819	     -5.15123094	     11.15993395	    -17.72709555	      0.00000000	     29.57100670	     -2.54729360	      4.14042697	    -62.16537598	      3.88621611	    -19.50263395	      0.00000000	    -15.10075906	      2.17135193	      4.26674695
      5.41000000	     -4.97608258	     -4.62067622	      1.63745866	      2.82624880	      0.70255068	     -0.32256412	      1.00342911	     12.82703546	     13.92187483	     -3.55947305	     10.58134141	    -18.50065184	      0.00000000	     30.85946095	     -1.93369489	      4.03834526	    -59.48900881	      4.29766975	    -20.16608567	      0.00000000	    -15.06532933	      1.70791120	      4.90764231
      5.42000000	     -5.33367970	     -4.30666192	      1.07039690	      2.84014085	      0.70254600	     -0.32286060	     -0.56387058	     12.31470906	     14.36170419	     -2.34515873	     10.52346521	    -18.29471612	      0.00000000	     32.18195858	     -1.53147763	      3.99522711	    -56.45023386	      4.82766750	    -20.30564359	      0.00000000	    -14.80606340	      1.44938118	      5.47725898
      5.43000000	     -5.67846017	     -4.08288493	      0.60847610	      2.85402331	      0.70225459	     -0.32330971	     -1.99963254	     11.89509282	     14.63107576	     -1.36878775	     10.44411907	    -18.04252318	      0.00000000	     33.27082111	     -1.16414577	      4.22320292	    -52.94565642	      5.35691897	    -20.04600467	      0.00000000	    -14.56627411	      1.32978472	      5.99730084
      5.44000000	     -5.63525289	     -3.83557885	     -0.16052211	      2.86798356	      0.70221677	     -0.32336997	     -3.80610530	     11.41872800	     15.36579336	     -0.53724052	     10.33641246	    -17.91239002	      0.00000000	     33.58118877	     -1.03580197	      4.13842297	    -48.85707485	      5.95579481	    -19.67050701	      0.00000000	    -14.86011560	      1.11971136	      6.78013545
      5.45000000	     -5.70422285	     -3.66705498	     -0.73530086	      2.88204928	      0.70172608	     -0.32360538	     -5.35157911	     11.03385873	     15.81024643	      0.05700572	     10.33042116	    -17.68001971	      0.00000000	     33.75259939	     -0.89196766	      4.41496161	    -44.25926913	      6.51769251	    -19.17089227	      0.00000000	    -14.96704416	      1.01438909	      7.25105193
      5.46000000	     -5.64337707	     -3.53988651	     -1.27882826	      2.89623538	      0.70113013	     -0.32384524	     -6.92529395	     10.68981886	     16.19384559	      0.42523996	     10.45363019	    -17.32133270	      0.00000000	     33.43725133	     -0.79799913	      4.92814594	    -39.07938799	      6.95764545	    -18.81432176	      0.00000000	    -15.22185237	      0.93959719	      7.64370256
      5.47000000	     -5.73478718	     -3.53625687	     -2.01067045	      2.91051321	      0.70014336	     -0.32377894	     -8.18834862	     10.47757090	     16.65234983	      0.47069871	     10.69504350	    -16.70638816	      0.00000000	     32.93000013	     -0.98801849	      5.54212791	    -33.36761429	      7.18826256	    -18.68432863	      0.00000000	    -15.25644837	      0.95274057	      8.25075088
      5.48000000	     -5.53662213	     -3.57526102	     -2.64057104	      2.92511266	      0.69918422	     -0.32375770	     -9.70737475	     10.30537272	     16.89767174	      0.36703613	     11.08536705	    -15.89515416	      0.00000000	     31.70263174	     -1.20462474	      6.69303701	    -27.07107076	      7.01297421	    -19.19138199	      0.00000000	    -15.60445063	      0.98890943	      8.70741874
      5.49000000	     -5.26717946	     -3.77043261	     -3.31326857	      2.94005864	      0.69793433	     -0.32359816	    -11.26630143	     10.26306453	     17.17826018	      0.09879942	     11.63298007	    -14.72992333	      0.00000000	     30.05241248	     -1.69443609	      8.42185342	    -20.38059324	      6.25926113	    -20.51532991	      0.00000000	    -15.96428808	      1.17782942	      9.08705628
      5.50000000	     -4.97957892	     -4.27312155	     -4.08979382	      2.95521448	      0.69629213	     -0.32301922	    -12.73929032	     10.56581420	     17.30551257	     -0.47988029	     12.24483987	    -13.28248597	      0.00000000	     28.16785566	     -2.73934499	     10.59779683	    -13.56679364	      4.82291759	    -22.79421136	      0.00000000	    -16.32195186	      1.62886706	      9.69487458
      5.51000000	     -4.81527533	     -5.13286121	     -4.85968956	      2.97052740	      0.69402023	     -0.32206834	    -13.99655622	     11.28718205	     17.27098694	     -1.34853676	     12.88058107	    -11.60754991	      0.00000000	     26.48535568	     -4.38067573	     12.46371386	     -7.18607720	      3.33126699	    -24.91044911	      0.00000000	    -16.52090369	      2.42547283	     10.34823329
